<?xml version="1.0" encoding="utf-8"?>
<!-- Generator: Adobe Illustrator 24.0.0, SVG Export Plug-In . SVG Version: 6.00 Build 0)  -->
<svg version="1.1" id="Layer_1" xmlns="http://www.w3.org/2000/svg" xmlns:xlink="http://www.w3.org/1999/xlink" x="0px" y="0px"
	 viewBox="0 0 29.73 35.12" style="enable-background:new 0 0 29.73 35.12;" xml:space="preserve">
<g>
	<path d="M3.6,30.46c-1.84-2.4-2.72-5.36-2.72-8.8c0-4.56,1.12-8.88,3.28-13.04c2.24-4.24,4.64-6.4,7.28-6.4
		c0.72,0,1.44,0.16,2.24,0.48c0.8-1.12,1.76-1.68,2.8-1.68c3.12,0.8,4.72,3.28,4.72,7.44c0,4.08-1.28,7.68-3.84,10.8
		c-2.8,3.36-5.76,4.24-8.88,2.64v1.04c0,1.84,0.48,3.36,1.36,4.72c0.96,1.44,2.24,2.16,3.92,2.16c2.64,0,5.36-1.92,8.16-5.84
		c2.16-3.04,3.84-6.4,5.04-10c1.2,0,1.92,0.48,2.16,1.44c-0.8,3.12-2.16,6.32-4,9.44c-3.76,6.32-8.24,9.52-13.44,9.52
		C8.32,34.38,5.6,33.1,3.6,30.46z M14.96,14.54c1.36-3.68,1.36-6.24,0-7.6c-3.12,1.84-5.2,6-6.24,12.64
		C11.44,20.14,13.52,18.46,14.96,14.54z"/>
</g>
<g>
</g>
<g>
</g>
<g>
</g>
<g>
</g>
<g>
</g>
</svg>
