<?xml version="1.0" encoding="utf-8"?>
<!-- Generator: Adobe Illustrator 24.0.0, SVG Export Plug-In . SVG Version: 6.00 Build 0)  -->
<svg version="1.1" id="Layer_1" xmlns="http://www.w3.org/2000/svg" xmlns:xlink="http://www.w3.org/1999/xlink" x="0px" y="0px"
	 viewBox="0 0 206.3 66.88" style="enable-background:new 0 0 206.3 66.88;" xml:space="preserve">
<g>
	<g id="ecautopass">
		<g>
			<path d="M3.06,33.19c-1.47-1.92-2.18-4.29-2.18-7.04c0-3.65,0.9-7.1,2.62-10.43c1.79-3.39,3.71-5.12,5.82-5.12
				c0.58,0,1.15,0.13,1.79,0.38c0.64-0.9,1.41-1.34,2.24-1.34c2.5,0.64,3.78,2.62,3.78,5.95c0,3.26-1.02,6.14-3.07,8.64
				c-2.24,2.69-4.61,3.39-7.1,2.11v0.83c0,1.47,0.38,2.69,1.09,3.78c0.77,1.15,1.79,1.73,3.14,1.73c2.11,0,4.29-1.54,6.53-4.67
				c1.73-2.43,3.07-5.12,4.03-8c0.96,0,1.54,0.38,1.73,1.15c-0.64,2.5-1.73,5.06-3.2,7.55c-3.01,5.06-6.59,7.62-10.75,7.62
				C6.83,36.33,4.66,35.3,3.06,33.19z M12.14,20.46c1.09-2.94,1.09-4.99,0-6.08c-2.5,1.47-4.16,4.8-4.99,10.11
				C9.33,24.94,10.99,23.59,12.14,20.46z"/>
		</g>
		<g>
			<path d="M21.94,33.19c-1.22-1.86-1.86-4.16-1.86-7.04c0-3.65,0.9-7.1,2.62-10.43c1.79-3.39,3.71-5.12,5.82-5.12
				c0.7,0,1.66,0.26,2.75,0.77c0.64-0.45,1.22-0.7,1.79-0.7c0.77,0,1.54,0.45,2.3,1.41c0.83,0.96,1.22,1.98,1.28,3.07
				c0,2.37-0.58,4.42-1.79,6.14c-1.09,1.6-2.3,2.37-3.58,2.37c-0.83,0-1.47-0.32-1.79-1.02c0.51-0.06,1.09-0.77,1.73-2.18
				c0.7-1.47,1.02-2.94,1.02-4.29c0-0.58-0.13-1.28-0.32-2.05c-1.22,0.32-2.5,1.92-3.78,4.67c-1.34,2.88-1.98,5.63-1.98,8.38
				c0,3.65,1.22,5.5,3.58,5.5c2.11,0,4.29-1.54,6.53-4.67c1.66-2.37,3.01-5.06,3.97-7.94c0.96,0,1.6,0.38,1.79,1.09
				c-0.64,2.5-1.73,5.06-3.2,7.55c-3.01,5.06-6.59,7.62-10.75,7.62C25.39,36.33,23.34,35.3,21.94,33.19z"/>
		</g>
		<g>
			<path d="M64.05,20.14h0.19c1.02,0,1.54,0.26,1.54,0.83c0.13,0.9-0.64,3.2-2.37,6.98c-2.11,4.42-4.22,6.66-6.46,6.66
				c-1.66,0-3.07-0.58-4.16-1.66c-1.02-1.02-1.6-2.37-1.79-4.03c-0.06-0.06-0.06-0.26-0.06-0.45c-1.54,4.99-3.52,7.49-6.02,7.49
				c-1.28,0-2.5-0.51-3.65-1.6c-1.41-1.34-2.24-3.07-2.5-5.25c-0.45-3.78,0.19-7.81,1.92-12.03c1.86-4.8,4.35-7.17,7.42-7.17
				c1.6,0,3.52,0.7,5.76,2.18c2.37,1.6,3.2,3.07,2.5,4.42l-0.19,0.26c1.47,0.7,2.37,1.6,2.82,2.75c-0.96,2.69-1.6,5.18-1.92,7.55
				c-0.32,2.62-0.13,3.9,0.64,3.9C59.5,30.95,61.61,27.37,64.05,20.14z M52.46,17.13c-0.38-2.37-1.09-3.52-2.05-3.52
				c-1.98,0-3.65,3.07-4.99,9.22c-0.58,2.43-0.83,4.54-0.77,6.34c0,1.92,0.32,2.88,0.96,2.88C47.09,32.04,49.33,27.05,52.46,17.13z"
				/>
		</g>
		<g>
			<path d="M76.85,33.89c-1.41-1.09-2.18-2.5-2.3-4.29c-0.06-0.32-0.06-1.15-0.06-2.37c-1.66,4.48-3.65,6.72-6.02,6.72
				c-3.26,0-5.18-1.79-5.7-5.44c-0.32-2.18,0.06-5.82,1.15-10.88c1.09-5.12,2.11-7.68,2.94-7.68c2.43,0,4.16,0.83,5.25,2.43
				c-0.51,0.96-1.28,3.46-2.3,7.55c-1.15,4.54-1.6,7.55-1.41,9.02c0.06,0.7,0.26,1.02,0.7,1.02c1.6,0,3.9-4.8,6.85-14.4
				c0.58-2.62,1.28-3.97,2.11-3.97c2.62,0,4.29,0.58,5.12,1.73c-1.98,3.65-3.01,8.96-3.01,15.93c0,1.47,0.32,2.18,0.9,2.18
				c1.73,0,3.84-3.78,6.34-11.33h0.19c1.02,0,1.54,0.26,1.54,0.83c0.13,0.96-0.64,3.33-2.37,7.23c-2.11,4.61-4.22,6.91-6.46,6.91
				C79.09,35.11,77.93,34.73,76.85,33.89z"/>
		</g>
		<g>
			<path d="M88.81,11.56c1.47-6.34,2.56-9.47,3.26-9.47c2.62,0,4.48,0.7,5.5,2.05c-0.51,0.96-1.22,3.2-2.18,6.59
				c1.47-0.19,2.3-0.26,2.62-0.26c0.77,0,1.28,0.45,1.6,1.41s0.26,1.98-0.13,3.14c-0.26-0.26-1.98-0.26-5.25,0
				c-2.88,11.46-3.07,17.21-0.58,17.21c1.22,0,2.69-1.28,4.35-3.78c1.54-2.37,2.88-5.18,4.03-8.45c0.26-0.06,0.64,0,1.09,0.26
				c0.45,0.19,0.64,0.45,0.64,0.64c-0.06,1.6-1.09,4.22-3.01,7.94c-2.43,4.67-4.93,7.04-7.42,7.04c-1.98,0-3.65-0.64-4.86-1.86
				c-1.15-1.15-1.86-2.56-2.05-4.29c-0.32-2.62,0.19-7.42,1.54-14.27h-0.06c-1.34,0-2.24-0.64-2.56-1.86
				c-0.26-1.02-0.19-1.73,0.19-2.18C86,11.62,87.09,11.69,88.81,11.56z"/>
		</g>
		<g>
			<path d="M113.84,14.89c-2.18,0.38-3.9-0.96-5.12-3.97c-0.45-1.22-0.64-2.24-0.45-3.07c0.19-0.96,0.7-1.47,1.66-1.47
				c3.14,0,5.5,1.73,7.23,5.12c2.24-0.7,4.42-2.11,6.4-4.22c1.92-1.98,3.14-3.9,3.71-5.82c0.06-0.06,0.06-0.06,0.13-0.06
				c0.64,0,0.96,0.38,0.96,1.22c-0.38,2.24-1.54,4.54-3.52,6.85c-1.98,2.5-4.22,4.16-6.59,4.99c0.26,1.09,0.38,2.24,0.38,3.58
				c0,5.44-0.9,9.92-2.62,13.38c-1.73,3.46-3.9,5.18-6.53,5.18c-2.88,0-5.12-0.96-6.72-2.94c-1.54-1.86-2.3-4.29-2.3-7.42
				c0-2.43,0.45-4.8,1.28-7.1c0.83-2.24,1.79-3.58,2.88-4.16c0.7-0.38,1.86-0.58,3.39-0.51c1.6,0.06,2.3,0.38,2.18,0.96
				c-1.09,0.45-2.05,2.3-2.88,5.63c-0.77,2.94-1.15,5.7-1.15,8.32c0,2.69,0.64,4.03,1.98,4.03c1.41,0,2.75-1.73,3.97-5.18
				c1.22-3.39,1.86-6.98,1.86-10.69C113.96,16.87,113.9,15.98,113.84,14.89z"/>
		</g>
		<g>
			<path d="M123.24,48.1c-1.79-0.51-2.75-1.34-2.82-2.5c-0.26-3.78,0.51-10.69,2.3-20.73c1.73-9.79,2.94-14.66,3.58-14.66
				c0.96,0,2.05,0.19,3.39,0.64c1.34,0.45,2.18,0.83,2.37,1.28c-0.45,0.64-1.28,3.46-2.37,8.38c-0.06,0.06,0,0.13,0.06,0.32
				c2.24-6.78,4.61-10.18,7.04-10.18c1.34,0,2.62,0.51,3.71,1.6c1.22,1.22,1.98,2.94,2.24,5.12c0.45,3.9-0.19,7.87-1.86,11.9
				c-1.92,4.67-4.54,7.04-7.94,7.04c-2.18,0-4.03-0.83-5.5-2.56c-1.22,7.49-1.54,12.29-1.09,14.4
				C126,48.61,124.97,48.61,123.24,48.1z M128.36,29.16h0.06c0.38,2.37,1.28,3.58,2.69,3.58c1.98,0,3.65-3.07,5.06-9.28
				c0.58-2.37,0.83-4.48,0.9-6.34c0.06-1.92-0.26-2.88-0.9-2.88C134.7,14.25,132.14,19.24,128.36,29.16z"/>
		</g>
		<g>
			<path d="M171.37,20.14h0.19c1.02,0,1.54,0.26,1.54,0.83c0.13,0.9-0.64,3.2-2.37,6.98c-2.11,4.42-4.22,6.66-6.46,6.66
				c-1.66,0-3.07-0.58-4.16-1.66c-1.02-1.02-1.6-2.37-1.79-4.03c-0.06-0.06-0.06-0.26-0.06-0.45c-1.54,4.99-3.52,7.49-6.02,7.49
				c-1.28,0-2.5-0.51-3.65-1.6c-1.41-1.34-2.24-3.07-2.5-5.25c-0.45-3.78,0.19-7.81,1.92-12.03c1.86-4.8,4.35-7.17,7.42-7.17
				c1.6,0,3.52,0.7,5.76,2.18c2.37,1.6,3.2,3.07,2.5,4.42l-0.19,0.26c1.47,0.7,2.37,1.6,2.82,2.75c-0.96,2.69-1.6,5.18-1.92,7.55
				c-0.32,2.62-0.13,3.9,0.64,3.9C166.83,30.95,168.94,27.37,171.37,20.14z M159.79,17.13c-0.38-2.37-1.09-3.52-2.05-3.52
				c-1.98,0-3.65,3.07-4.99,9.22c-0.58,2.43-0.83,4.54-0.77,6.34c0,1.92,0.32,2.88,0.96,2.88
				C154.41,32.04,156.65,27.05,159.79,17.13z"/>
		</g>
		<g>
			<path d="M178.86,9.19h0.19c1.09,0,2.3,0.38,3.52,1.09c1.22,0.7,1.79,1.41,1.79,2.05l-0.06,0.26c-0.7,0-1.47,0.32-2.24,1.02
				c-0.77,0.77-1.15,1.6-1.15,2.43c0,0.7,0.7,2.43,2.18,5.31c1.47,2.88,2.18,5.25,2.18,7.1c0,2.11-0.7,3.97-2.05,5.5
				c-1.6,1.79-3.84,2.69-6.78,2.75c-2.5,0-4.48-0.9-6.08-2.75c-1.34-1.6-2.05-3.26-2.05-5.12c0-1.98,0.77-3.01,2.3-3.01
				c0.51,0,3.39,1.02,8.58,3.14c0.06-0.19,0.06-0.45,0.06-0.77c0-1.22-0.45-3.14-1.41-5.7c-0.96-2.62-1.54-4.86-1.6-6.72
				c-1.54,4.8-2.5,7.23-2.82,7.23c-0.83,0-1.28-0.51-1.28-1.54c0.9-2.3,1.73-4.61,2.43-6.91C175.72,11.05,177.13,9.26,178.86,9.19z
				 M178.48,31.21c-2.94-1.09-4.74-1.66-5.38-1.66c-0.51,0-0.77,0.32-0.77,1.02c0,1.86,0.77,2.82,2.3,2.82
				C176.3,33.38,177.58,32.68,178.48,31.21z"/>
		</g>
		<g>
			<path d="M197.8,9.19h0.19c1.09,0,2.3,0.38,3.52,1.09c1.22,0.7,1.79,1.41,1.79,2.05l-0.06,0.26c-0.7,0-1.47,0.32-2.24,1.02
				c-0.77,0.77-1.15,1.6-1.15,2.43c0,0.7,0.7,2.43,2.18,5.31c1.47,2.88,2.18,5.25,2.18,7.1c0,2.11-0.7,3.97-2.05,5.5
				c-1.6,1.79-3.84,2.69-6.78,2.75c-2.5,0-4.48-0.9-6.08-2.75c-1.34-1.6-2.05-3.26-2.05-5.12c0-1.98,0.77-3.01,2.3-3.01
				c0.51,0,3.39,1.02,8.58,3.14c0.06-0.19,0.06-0.45,0.06-0.77c0-1.22-0.45-3.14-1.41-5.7c-0.96-2.62-1.54-4.86-1.6-6.72
				c-1.54,4.8-2.5,7.23-2.82,7.23c-0.83,0-1.28-0.51-1.28-1.54c0.9-2.3,1.73-4.61,2.43-6.91C194.67,11.05,196.07,9.26,197.8,9.19z
				 M197.42,31.21c-2.94-1.09-4.74-1.66-5.38-1.66c-0.51,0-0.77,0.32-0.77,1.02c0,1.86,0.77,2.82,2.3,2.82
				C195.24,33.38,196.52,32.68,197.42,31.21z"/>
		</g>
	</g>
	<g>
		<path d="M61.54,51.69c0.13,0,0.19,0.06,0.19,0.2v0.27c0,0.12-0.06,0.18-0.19,0.18h-3.25v9.81c0,0.14-0.06,0.2-0.18,0.2h-0.31
			c-0.13,0-0.19-0.06-0.19-0.2v-9.81h-3.25c-0.14,0-0.2-0.06-0.2-0.18v-0.27c0-0.14,0.06-0.2,0.2-0.2H61.54z"/>
		<path d="M65.34,54.44c0.1,0,0.17,0.06,0.17,0.18v0.24c0,0.12-0.06,0.18-0.17,0.18h-0.48c-0.85,0-1.6,0.13-2.26,0.39
			c-0.21,0.11-0.31,0.27-0.31,0.5v6.24c0,0.12-0.06,0.18-0.17,0.18h-0.3c-0.12,0-0.18-0.06-0.18-0.18v-6.42
			c0-0.39,0.19-0.66,0.57-0.83c0.77-0.31,1.65-0.46,2.67-0.48H65.34z"/>
		<path d="M72.97,54.66c0.1,0,0.17,0.06,0.17,0.17v8.07c0,2.16-1.04,3.24-3.12,3.24c-1.38,0-2.35-0.57-2.92-1.7
			c-0.09-0.13-0.06-0.22,0.08-0.29l0.19-0.1c0.12-0.06,0.21-0.03,0.28,0.08c0.48,0.94,1.26,1.42,2.35,1.42
			c1.67,0,2.49-0.87,2.49-2.63v-0.97c-0.88,0.33-1.77,0.5-2.62,0.5c-1.94,0-2.91-0.96-2.91-2.9v-4.72c0-0.11,0.06-0.17,0.18-0.17
			h0.29c0.12,0,0.18,0.06,0.18,0.17v4.69c0,1.56,0.78,2.34,2.33,2.34c0.85,0,1.71-0.17,2.56-0.51v-6.52c0-0.11,0.06-0.17,0.18-0.17
			H72.97z"/>
		<path d="M86.8,54.66c0.11,0,0.17,0.06,0.17,0.17v8.07c0,2.16-1.04,3.24-3.12,3.24c-1.38,0-2.35-0.57-2.92-1.7
			c-0.09-0.13-0.06-0.22,0.08-0.29l0.2-0.1c0.12-0.06,0.21-0.03,0.29,0.08c0.48,0.94,1.26,1.42,2.35,1.42
			c1.67,0,2.49-0.87,2.49-2.63v-0.97c-0.89,0.33-1.77,0.5-2.63,0.5c-1.94,0-2.91-0.96-2.91-2.9v-4.72c0-0.11,0.06-0.17,0.18-0.17
			h0.29c0.12,0,0.18,0.06,0.18,0.17v4.69c0,1.56,0.78,2.34,2.33,2.34c0.86,0,1.71-0.17,2.57-0.51v-6.52c0-0.11,0.06-0.17,0.18-0.17
			H86.8z"/>
		<path d="M89.14,57.08c0-0.81,0.28-1.46,0.87-1.94c0.58-0.46,1.36-0.7,2.34-0.7c0.99,0,1.77,0.24,2.35,0.7
			c0.58,0.47,0.87,1.11,0.87,1.94v2.85c0,0.81-0.29,1.46-0.87,1.92s-1.37,0.71-2.35,0.71c-0.98,0-1.75-0.24-2.34-0.71
			c-0.59-0.46-0.87-1.11-0.87-1.92V57.08z M94.93,57.06c0-0.63-0.24-1.12-0.71-1.5c-0.46-0.36-1.09-0.54-1.87-0.54
			c-0.77,0-1.4,0.18-1.86,0.54c-0.46,0.38-0.71,0.88-0.71,1.5v2.87c0,0.62,0.24,1.11,0.71,1.49s1.09,0.55,1.86,0.55
			c0.78,0,1.41-0.18,1.87-0.55c0.47-0.36,0.71-0.86,0.71-1.49V57.06z"/>
		<path d="M103.69,54.66c0.11,0,0.17,0.06,0.17,0.17v6.42c0,0.39-0.18,0.66-0.55,0.83c-0.81,0.31-1.71,0.48-2.71,0.48
			c-1.94,0-2.91-0.96-2.91-2.89v-4.83c0-0.11,0.06-0.17,0.18-0.17h0.29c0.12,0,0.18,0.06,0.18,0.17v4.8c0,1.56,0.78,2.34,2.33,2.34
			c0.84,0,1.59-0.13,2.25-0.39c0.21-0.11,0.32-0.27,0.32-0.51v-6.24c0-0.11,0.06-0.17,0.18-0.17H103.69z"/>
		<path d="M109.92,54.44c0.1,0,0.17,0.06,0.17,0.18v0.24c0,0.12-0.06,0.18-0.17,0.18h-0.48c-0.85,0-1.6,0.13-2.26,0.39
			c-0.21,0.11-0.31,0.27-0.31,0.5v6.24c0,0.12-0.06,0.18-0.17,0.18h-0.3c-0.12,0-0.18-0.06-0.18-0.18v-6.42
			c0-0.39,0.2-0.66,0.57-0.83c0.76-0.31,1.65-0.46,2.67-0.48H109.92z"/>
		<path d="M117.34,51.24c0.1,0,0.17,0.06,0.17,0.18v3.58c0.99-0.38,1.88-0.57,2.66-0.57c1.93,0,2.89,0.96,2.89,2.89v2.19
			c0,2.03-1.05,3.03-3.17,3.03c-0.93,0-1.74-0.15-2.45-0.43c-0.39-0.17-0.58-0.44-0.58-0.83v-9.87c0-0.12,0.06-0.18,0.18-0.18
			H117.34z M122.41,57.35c0-1.54-0.76-2.31-2.31-2.31c-0.88,0-1.74,0.2-2.59,0.58v5.49c0,0.22,0.12,0.39,0.36,0.49
			c0.58,0.24,1.24,0.36,1.99,0.36c1.7,0,2.55-0.81,2.55-2.45V57.35z"/>
		<path d="M124.92,57.57c0-0.98,0.27-1.74,0.83-2.29c0.55-0.56,1.37-0.84,2.42-0.84c1.06,0,1.88,0.28,2.43,0.85
			c0.54,0.55,0.81,1.3,0.81,2.25v0.76c0,0.23-0.12,0.33-0.35,0.33h-5.49v1.02c0,1.56,0.84,2.34,2.5,2.34c1.23,0,2.11-0.5,2.65-1.47
			c0.08-0.11,0.17-0.14,0.27-0.08l0.21,0.12c0.12,0.06,0.13,0.15,0.06,0.27c-0.61,1.14-1.68,1.71-3.19,1.71
			c-1.04,0-1.83-0.27-2.38-0.81c-0.51-0.51-0.77-1.23-0.77-2.15V57.57z M130.75,57.51c0-0.78-0.21-1.39-0.64-1.83
			c-0.45-0.45-1.1-0.67-1.95-0.67c-0.86,0-1.5,0.23-1.95,0.67c-0.43,0.44-0.64,1.05-0.64,1.83v0.6h5.19V57.51z"/>
		<path d="M135.97,54.44c1.54,0,2.53,0.55,3,1.65c0.06,0.11,0.03,0.2-0.09,0.25l-0.22,0.09c-0.11,0.04-0.18,0.03-0.25-0.07
			c-0.36-0.89-1.17-1.33-2.42-1.33c-1.5,0-2.25,0.52-2.25,1.56c0,0.64,0.24,1.08,0.74,1.3c0.28,0.14,0.88,0.25,1.78,0.35
			c0.95,0.09,1.61,0.25,2.01,0.49c0.55,0.33,0.84,0.87,0.84,1.64c0,1.45-0.99,2.19-2.99,2.19c-1.63,0-2.7-0.63-3.19-1.89
			c-0.04-0.12,0-0.2,0.1-0.24l0.25-0.08c0.11-0.04,0.18,0,0.23,0.11c0.38,1.02,1.23,1.53,2.59,1.53c1.58,0,2.37-0.52,2.37-1.59
			c0-0.57-0.23-0.97-0.68-1.21c-0.31-0.17-0.87-0.3-1.68-0.38c-1-0.1-1.71-0.25-2.08-0.45c-0.61-0.31-0.93-0.9-0.93-1.75
			C133.11,55.16,134.07,54.44,135.97,54.44z"/>
		<path d="M142.35,52.86c0.12,0,0.18,0.06,0.18,0.17v1.63h2.38c0.12,0,0.18,0.06,0.18,0.17v0.25c0,0.11-0.06,0.17-0.18,0.17h-2.38
			v4.35c0,0.95,0.17,1.58,0.51,1.89c0.31,0.3,0.93,0.45,1.84,0.45c0.12,0,0.18,0.06,0.18,0.18v0.25c0,0.12-0.06,0.18-0.18,0.18
			c-1.13,0.01-1.91-0.2-2.33-0.6c-0.45-0.42-0.67-1.2-0.67-2.34v-4.37h-1.62c-0.1,0-0.17-0.06-0.17-0.17v-0.25
			c0-0.11,0.06-0.17,0.17-0.17h1.62v-1.63c0-0.11,0.06-0.17,0.18-0.17H142.35z"/>
		<path d="M152.25,61.52c0.29,0,0.42,0.13,0.42,0.41v0.09c0,0.27-0.13,0.41-0.42,0.41h-0.08c-0.27,0-0.41-0.13-0.41-0.41v-0.09
			c0-0.27,0.14-0.41,0.41-0.41H152.25z M152.38,51.24c0.12,0,0.18,0.06,0.18,0.18l-0.09,8.49c0,0.1-0.06,0.17-0.18,0.17h-0.17
			c-0.11,0-0.17-0.06-0.17-0.17l-0.09-8.49c0-0.12,0.06-0.18,0.17-0.18H152.38z"/>
	</g>
</g>
<g>
</g>
<g>
</g>
<g>
</g>
<g>
</g>
<g>
</g>
</svg>
